<svg xmlns="http://www.w3.org/2000/svg" width="579" height="719"><rect fill="#534436" width="579" height="128"/><rect y="561" fill="#534436" width="579" height="59"/><rect y="609" fill="#534436" width="79" height="110"/><rect x="499" y="609" fill="#534436" width="79" height="110"/><rect y="128" fill="#BDBEB9" width="579" height="433"/><rect y="562" fill="#88C8DC" width="579" height="9"/><rect fill="#88C8DC" width="579" height="9"/><path fill="#ECDA7D" d="M267 89.667s7.333-3.667 12.333-2.333 4 16.667 2.667 16.333l-3.333 3-.333 80s7 8.667-3.667 13l-10.667-2.667-226-1s0 1-5 3-8.667-.333-9.333-1.667-2.762-5.212 0-7.333l2.639-4.666-.972-79.667s-.167-4.415-3.897-4.667c-1.519.169.852-8.008 1.564-10s1-6.584 8-3.958l235.999 2.625z"/><path fill="#ECDA7D" d="M543 89.667s7.334-3.667 12.334-2.333 4 16.667 2.666 16.333l-3.334 3-.332 80s6.999 8.667-3.668 13c-10.666 4.333-10.666-2.667-10.666-2.667l-226-1s0 1-5 3-8.667-.333-9.333-1.667-2.762-5.212 0-7.333l2.639-4.666-.972-79.667s-.167-4.415-3.897-4.667c-1.519.169.852-8.008 1.564-10s1-6.584 8-3.958l235.999 2.625z"/></svg>