<svg xmlns="http://www.w3.org/2000/svg" xmlns:xlink="http://www.w3.org/1999/xlink" width="299" height="299" viewBox="147.5 146 299 299" enable-background="new 147.5 146 299 299"><image overflow="visible" enable-background="new" width="250" height="250" xlink:href="22749DC.png" transform="matrix(1.172 0 0 1.172 152.5 148)"/><rect x="150.5" y="149" fill="#CC9945" stroke="#754C24" stroke-width="6" stroke-miterlimit="10" width="293" height="293"/><rect x="189.5" y="185.5" fill="#9A6926" width="219.5" height="219"/><line stroke="#603813" stroke-width="8" stroke-miterlimit="10" x1="189" y1="274.5" x2="408.5" y2="273" fill="none"/><line stroke="#603813" stroke-width="8" stroke-miterlimit="10" x1="189" y1="229.5" x2="408.5" y2="228" fill="none"/><line stroke="#603813" stroke-width="8" stroke-miterlimit="10" x1="190" y1="317" x2="409.5" y2="315.5" fill="none"/><line stroke="#603813" stroke-width="8" stroke-miterlimit="10" x1="190" y1="360" x2="409.5" y2="358.5" fill="none"/><line stroke="#603813" stroke-width="8" stroke-miterlimit="10" x1="190" y1="397.5" x2="409.5" y2="396" fill="none"/><polygon fill="#CC9945" stroke="#754C24" stroke-width="6" stroke-miterlimit="10" points="190,185.5 218.5,185.5 408.5,375.5 408.5,403 374.5,403 190,221.5"/><polygon fill="#CC9945" stroke="#754C24" stroke-width="6" stroke-miterlimit="10" points="376,185.5 408.5,185.5 408.5,218.5 222.5,403 190,403 190,370.5"/></svg>