<svg xmlns="http://www.w3.org/2000/svg" width="704" height="692"><rect y="60" fill="#74675C" width="704" height="195"/><rect x="258" fill="#9299A6" width="198" height="228"/><rect x="270" y="10" fill="#9CD0E1" width="176" height="99"/><line fill="#8BC8DC" x1="270" y1="10" x2="446" y2="109"/><rect y="255" fill="#8BC8DC" width="704" height="10"/><rect x="260" y="341" fill="#8BC8DC" width="184" height="10"/><rect y="265" fill="#534436" width="195" height="266"/><rect x="195" y="265" fill="#534436" width="317" height="28"/><rect x="508" y="265" fill="#534436" width="196" height="266"/><rect x="260" y="351" fill="#534436" width="184" height="202"/><rect x="271.5" y="128.5" fill="#fff" stroke="#000" stroke-miterlimit="10" width="174" height="52"/><rect x="328.5" y="186.5" fill="#666" stroke="#000" stroke-miterlimit="10" width="60" height="28"/><path fill="#ADA69F" d="M615 490c0 3.313-2.687 6-6 6h-2c-3.313 0-6-2.687-6-6s2.687-6 6-6h2c3.313 0 6 2.687 6 6z"/><path fill="#ADA69F" d="M615 307c0 3.313-2.687 6-6 6h-2c-3.313 0-6-2.687-6-6s2.687-6 6-6h2c3.313 0 6 2.687 6 6z"/><path fill="#ADA69F" d="M106 307c0 3.313-2.687 6-6 6h-2c-3.313 0-6-2.687-6-6s2.687-6 6-6h2c3.313 0 6 2.687 6 6z"/><path fill="#ADA69F" d="M106 398c0 3.313-2.687 6-6 6h-2c-3.313 0-6-2.687-6-6s2.687-6 6-6h2c3.313 0 6 2.687 6 6z"/><path fill="#ADA69F" d="M106 490c0 3.313-2.687 6-6 6h-2c-3.313 0-6-2.687-6-6s2.687-6 6-6h2c3.313 0 6 2.687 6 6z"/><path fill="#ADA69F" d="M615 398c0 3.313-2.687 6-6 6h-2c-3.313 0-6-2.687-6-6s2.687-6 6-6h2c3.313 0 6 2.687 6 6z"/><line stroke="#C7B299" stroke-width="2" stroke-miterlimit="10" y1="351" x2="195" y2="351" fill="none"/><line stroke="#C7B299" stroke-width="2" stroke-miterlimit="10" y1="442" x2="195" y2="442" fill="none"/><line stroke="#C7B299" stroke-width="2" stroke-miterlimit="10" x1="508" y1="351" x2="704" y2="351" fill="none"/><line stroke="#C7B299" stroke-width="2" stroke-miterlimit="10" x1="508" y1="442" x2="704" y2="442" fill="none"/><rect x="260" y="548" fill="#534436" width="17" height="144"/><rect x="427" y="548" fill="#534436" width="17" height="144"/><line stroke="#000" stroke-miterlimit="10" x1="445" y1="138.5" x2="272" y2="138.5" fill="none"/><line stroke="#000" stroke-miterlimit="10" x1="446" y1="148.5" x2="272" y2="148.5" fill="none"/><line stroke="#000" stroke-miterlimit="10" x1="446" y1="160.5" x2="271" y2="160.5" fill="none"/><line stroke="#000" stroke-miterlimit="10" x1="446" y1="171.5" x2="272" y2="171.5" fill="none"/><line stroke="#000" stroke-miterlimit="10" x1="288.333" y1="128.667" x2="289" y2="179.667" fill="none"/><line stroke="#000" stroke-miterlimit="10" x1="308.333" y1="128.667" x2="309" y2="179.667" fill="none"/><line stroke="#000" stroke-miterlimit="10" x1="328.333" y1="128.667" x2="329" y2="179.667" fill="none"/><line stroke="#000" stroke-miterlimit="10" x1="348.334" y1="128.667" x2="349" y2="179.667" fill="none"/><line stroke="#000" stroke-miterlimit="10" x1="368.334" y1="128.667" x2="369" y2="179.667" fill="none"/><line stroke="#000" stroke-miterlimit="10" x1="387.334" y1="128.667" x2="388" y2="179.667" fill="none"/><line stroke="#000" stroke-miterlimit="10" x1="406.334" y1="128.667" x2="407" y2="179.667" fill="none"/><line stroke="#000" stroke-miterlimit="10" x1="426.334" y1="128.667" x2="427" y2="179.667" fill="none"/><line stroke="#000" stroke-miterlimit="10" x1="308.333" y1="128.667" x2="309" y2="179.667" fill="none"/><path stroke="#fff" stroke-width="3" stroke-miterlimit="10" d="M258 148.5c-10.038-1.314-4.682 17.637-42-5.5-33.333-20.667-43.804-29.334-59.667-16.667-49.313 39.38 77.147 80.231 11.333 74.167" fill="none"/><path d="M133.215 174.075c-6.303-2.048-13.072 1.401-15.121 7.704l-1.545 4.756c-2.047 6.303 1.402 13.072 7.705 15.121l28.531 9.271c6.304 2.048 13.074-1.402 15.121-7.705l1.545-4.755c2.049-6.303-1.401-13.073-7.704-15.121l-28.532-9.271zm28.532 9.271c0 14.619-5.567 26.448-12.446 26.448" fill="#ccc" stroke="#fff" stroke-width="3" stroke-miterlimit="10"/></svg>