<svg xmlns="http://www.w3.org/2000/svg" width="422.5" height="170.5" viewBox="211.25 85.25 422.5 170.5" enable-background="new 211.25 85.25 422.5 170.5"><rect x="213.25" y="151.25" fill="#8AC6D9" width="14" height="3.5"/><rect x="224.25" y="85.25" fill="#8AC6D9" width="396" height="170.5"/><rect x="212.25" y="93.25" fill="#8AC6D9" width="14" height="3.5"/><rect x="213.75" y="104.75" fill="#8AC6D9" width="14" height="3.5"/><rect x="214.25" y="116.25" fill="#8AC6D9" width="14" height="3.5"/><rect x="211.25" y="127.75" fill="#8AC6D9" width="14" height="3.5"/><rect x="214.25" y="139.75" fill="#8AC6D9" width="14" height="3.5"/><rect x="213.75" y="162.75" fill="#8AC6D9" width="14" height="3.5"/><rect x="213.75" y="173.75" fill="#8AC6D9" width="14" height="3.5"/><rect x="218.25" y="185.25" fill="#8AC6D9" width="14" height="3.5"/><rect x="213.75" y="196.75" fill="#8AC6D9" width="14" height="3.5"/><rect x="214.75" y="208.75" fill="#8AC6D9" width="14" height="3.5"/><rect x="213.75" y="220.75" fill="#8AC6D9" width="14" height="3.5"/><rect x="212.25" y="231.75" fill="#8AC6D9" width="14" height="3.5"/><rect x="213.75" y="243.25" fill="#8AC6D9" width="14" height="3.5"/><rect x="614.25" y="151.25" fill="#8AC6D9" width="14" height="3.5"/><rect x="617.75" y="93.25" fill="#8AC6D9" width="14" height="3.5"/><rect x="618.25" y="104.75" fill="#8AC6D9" width="14" height="3.5"/><rect x="612.75" y="116.25" fill="#8AC6D9" width="14" height="3.5"/><rect x="617.75" y="127.75" fill="#8AC6D9" width="14" height="3.5"/><rect x="618.75" y="139.75" fill="#8AC6D9" width="14" height="3.5"/><rect x="618.25" y="162.75" fill="#8AC6D9" width="14" height="3.5"/><rect x="619.75" y="173.75" fill="#8AC6D9" width="14" height="3.5"/><rect x="618.25" y="185.25" fill="#8AC6D9" width="14" height="3.5"/><rect x="616.25" y="196.75" fill="#8AC6D9" width="14" height="3.5"/><rect x="619.75" y="208.75" fill="#8AC6D9" width="14" height="3.5"/><rect x="618.25" y="220.75" fill="#8AC6D9" width="14" height="3.5"/><rect x="619.25" y="231.75" fill="#8AC6D9" width="14" height="3.5"/><rect x="616.25" y="243.25" fill="#8AC6D9" width="14" height="3.5"/></svg>