<svg xmlns="http://www.w3.org/2000/svg" width="285" height="673"><rect y="354" fill="#534436" width="284" height="319"/><rect y="218" fill="#74675C" width="283" height="136"/><ellipse fill="#888" cx="143.5" cy="286.5" rx="53.5" ry="18.5"/><path fill="#ADA69F" d="M160 402c0 7.732-6.268 14-14 14h-5c-7.732 0-14-6.268-14-14s6.268-14 14-14h5c7.732 0 14 6.268 14 14z"/><path fill="#ADA69F" d="M160 563c0 7.732-6.268 14-14 14h-5c-7.732 0-14-6.268-14-14s6.268-14 14-14h5c7.732 0 14 6.268 14 14z"/><line stroke="#C7B299" stroke-width="12" stroke-miterlimit="10" x1="1" y1="520" x2="285" y2="520" fill="none"/><rect y="353" fill="#8BC8DC" width="285" height="12"/><rect x="132" y="163" fill="#CAD1CD" width="23" height="121"/><path fill="#F4F4ED" d="M90 18.5c-6.333 18.5-33.667 129.167-33.667 129.167s79.333 51.333 174.667 0l-34-129.167"/><ellipse fill="#CAD1CD" cx="143.5" cy="18.5" rx="53.5" ry="18.5"/></svg>