<svg xmlns="http://www.w3.org/2000/svg" width="337.458" height="331.258" viewBox="168.729 165.628 337.458 331.258" enable-background="new 168.729 165.628 337.458 331.258"><path fill="#B4FFAE" d="M320.437 184.974l-9 .833s-19.916 21.381-25.5 29.333c-5.21 7.419-17.412 30.85-17.667 31.667-.254.817-10.5 21.833-11 35.333-1.349 6.647-2.667 27-2.667 27s36.46-14.579 49.083-17.665c11.918-2.914 49.083-6.335 49.083-6.335l-32.332-100.166z"/><path fill="#FF7BAC" d="M311.604 185.808v-3.5s-21.854 8.66-28.875 12.125c-8.262 4.077-24.027 13.738-31.5 19.125-7.449 5.369-21.048 17.854-27.25 24.625-6 6.55-16.078 21.274-20.875 28.75-4.436 6.913-16.125 28.625-16.125 28.625s18.555-1.683 24.75-2.125c6.383-.456 12.067-.247 18.75 2.125 9.793 4.5 24.125 13.582 24.125 13.582s6.375-47.707 14.421-63.895c3.839-8.402 12.979-24.558 18.364-32.064 5.325-7.425 24.215-27.373 24.215-27.373z"/><rect x="376.46" y="331.747" transform="matrix(-.94 .342 -.342 -.94 858.723 546.246)" fill="#733619" width="9.499" height="34.144"/><path fill="#F37F52" d="M313.229 180.433s-17.607 4.818-23.375 6.75c-5.806 1.945-22.875 8.75-22.875 8.75s-23.229 10.604-30.5 15c-6.479 3.916-18.891 12.682-24.625 17.625-4.775 4.117-13.816 12.948-18 17.666-4.597 5.183-13.489 15.85-17.375 21.584-2.153 3.177-7.75 13.25-7.75 13.25s4.587-1.209 6.125-1c1.773.241 5.2 1.77 6.5 3 1.36 1.287 3.399 4.524 4.125 6.25.683 1.622 2 6.75 2 6.75s7.062-13.081 9.375-17.375c1.142-2.119 2.95-6.349 4.25-8.375 2.506-3.907 7.965-11.422 10.749-15.136 3.114-4.154 9.225-12.566 12.626-16.489 2.084-2.405 6.536-6.968 8.875-9.125 3.748-3.457 11.445-10.158 15.466-13.293 3.476-2.71 10.54-8.007 14.284-10.332 3.961-2.461 10.462-6.189 13.973-8.006 4.279-2.214 12.653-6.098 17.145-7.84 4.382-1.699 17.408-7.091 17.408-7.091l1.599-2.563z"/><path fill="#FBB03B" d="M324.02 178.391l2.708 2.083s23.916 6.824 31.648 9.79c6.891 2.643 20.352 8.782 26.801 12.371 4.73 2.633 13.966 8.328 18.334 11.527 5.938 4.348 17.412 13.605 22.791 18.627 3.901 3.642 11.365 11.288 14.885 15.3 2.281 2.601 8.75 10.719 8.75 10.719s4.678-6.642 6-9c1.705-3.04 4.424-9.535 6.5-12.334 1.881-2.532 6.74-6.654 9.167-8.667 1.913-1.586 6.042-4.378 8.167-5.666 2.385-1.445 7.461-3.914 10.166-4.584 2.959-.731 12.167-.75 12.167-.75l-10.167-6.833-15.333-8.667-15.167-7.166s-12.42-4.98-16.666-6.334c-5.363-1.709-16.347-4.24-21.834-5.5-5.332-1.224-16.08-3.335-21.5-4.083-6.291-.869-18.986-1.653-25.333-1.917-6.993-.29-21.001-.157-27.999 0-6.027.136-24.085 1.084-24.085 1.084z"/><path fill="#29ABE2" d="M322.417 177.198l1.635 1.765 17.812-1.417s18.749-.471 24.999-.403c7.697.083 23.102.874 30.746 1.792 7.734.929 23.096 3.723 30.656 5.606 6.312 1.573 18.865 5.08 24.955 7.368 5.741 2.157 16.99 7.109 22.428 9.946 5.052 2.635 19.722 11.425 19.722 11.425l6.817 4.526 1.918-3.334s-2.162-7.455-2.002-10c.203-3.202 4.084-12.167 4.084-12.167s-15.945-7.883-21.416-10.125c-5.359-2.196-16.313-6.085-21.896-7.625-7.224-1.993-21.856-5.403-29.26-6.563-5.103-.799-15.388-1.956-20.547-2.188-5.484-.246-16.477-.23-21.961 0-4.508.19-13.521.725-18.001 1.25-5.623.66-16.821 2.409-22.376 3.5-4.776.938-19 4.25-19 4.25"/><rect x="361.686" y="275.92" transform="matrix(.94 -.342 .342 .94 -82.414 143.343)" fill="#400F0B" width="7.426" height="59.054"/><rect x="407.228" y="360.29" transform="matrix(.94 -.342 .342 .94 -122.308 166.49)" fill="#400F0B" width="7.426" height="139.535"/><path fill="#ECDA7D" d="M326.77 180.433l-6.333 4.541 32.333 100.166s13.223-8.754 17.834-11.332c3.236-1.81 9.926-5.037 13.332-6.5 3.129-1.343 9.412-4.002 12.668-5 2.985-.915 9.113-2.177 12.166-2.833 2.838-.609 8.463-2.079 11.334-2.5 2.852-.419 8.617-.869 11.5-.834 2.297.029 6.895.315 9.166.667 2.318.359 9.166 2 9.166 2s-4.332-5.534-5.832-7.334c-2.514-3.013-7.752-8.866-10.5-11.666-3.036-3.093-9.359-9.035-12.668-11.834-4.575-3.87-13.931-11.385-18.832-14.833-3.281-2.308-10-6.708-13.5-8.667-5.043-2.82-15.375-8.017-20.668-10.333-3.735-1.634-11.314-4.664-15.166-6-4.619-1.603-12.957-4.522-17.667-5.833-1.822-.508-8.333-1.875-8.333-1.875z"/><path fill="#fff" d="M325.975 179.182c-.944-2.595-4.665-3.803-8.238-2.503l-2.157.785c-3.573 1.301-5.566 4.589-4.622 7.183l.285.783c.945 2.595 4.526 3.671 8.099 2.37l2.157-.784c3.574-1.301 5.706-4.457 4.761-7.051l-.285-.783z"/></svg>