<svg xmlns="http://www.w3.org/2000/svg" width="86.725" height="291.539"><path fill="#FFDEC0" d="M75.247 42.343c0-2.944 2.238-5.336 5.13-5.336 2.798 0 5.13 2.392 5.13 5.336 0 2.989-2.332 5.381-5.13 5.381-2.892 0-5.13-2.392-5.13-5.381z"/><path fill="#FFDEC0" d="M34.296 78.129l2.053-2.944s-5.877-.506-7.743-1.105c-2.985-1.055-8.209-4.738-10.541-6.853-1.959-1.747-4.943-6.302-5.876-8.784-.839-2.256-1.166-9.476-1.166-9.476l.653-7.637 5.737-12.958 8.582-6.103h31.528999999999996l11.847.952 6.25 6.066 3.171 9.747s.093 6.232 0 8.301c-.187 2.253-1.027 6.75-1.679 8.958-.653 2.07-2.706 6.018-3.918 7.814-1.306 1.93-4.757 5.284-6.716 6.618-2.239 1.564-7.37 3.542-9.981 4.323-1.213.415-5.131 1.011-5.131 1.011l.934 2.712 1.491.371s-3.917 1.885-5.223 2.435c-1.118.416-4.385 1.38-4.385 1.38s-2.798.139-3.638-.044c-1.026-.231-2.704-1.29-3.544-1.886-.746-.46-2.518-2.164-2.518-2.164"/><path fill="#FFDEC0" d="M4.448 42.343c0-2.944 2.285-5.336 5.13-5.336 2.845 0 5.13 2.392 5.13 5.336 0 2.989-2.285 5.381-5.13 5.381-2.845 0-5.13-2.392-5.13-5.381z"/><path fill="#8C6238" d="M20.212 267.002l-2.241 3.998-3.917 2.21s-3.265.137-4.058.826c-.933.829-1.258 3.635-.979 4.832.187.919 1.679 2.347 2.519 2.805 1.119.69 3.872.921 5.224 1.014 1.865.136 5.783-.231 7.555-.83 1.026-.367 2.706-1.655 3.545-2.347.559-.458 2.051-2.362 2.051-2.362l.654 4.122h4.297v-10.038l-1.169-4.186s-6.321 1.014-8.467.919c-1.304-.045-5.014-.963-5.014-.963z"/><path fill="#216083" d="M35.51 266.907s-7.183 1.198-9.608 1.152c-2.053 0-8.116-1.152-8.116-1.152l-.812-36.247-.112-35.741v-13.982l1.278-1.471-1.624-1.52-2.233-2.484.538-9.153 32.499.783 23.758.412s-4.025 6.44-3.56 8.786c.187 1.059 2.64 2.806 3.572 3.176 1.679.552 7.771 0 7.771 0v22.951l-1.717 26.221.544 19.575.915 18.057h-4.385l-15.296-.164-1.4-21.953-.84-16.796s-.187-12.608-.373-16.795c0-2.345-.279-7.038-.84-9.337-.372-1.979-2.705-8.374-2.519-7.639.279.735-4.852-2.068-6.622-1.977-1.96.048-6.25 1.195-7.369 2.806-1.493 6.671-1.493 17.111-1.493 17.111l-.653 19.272-.373 20.653-.93 15.456z"/><path fill="#114CA3" d="M17.834 181.703c.265-.648 1.319-1.082 1.852-1.5 1.009-.791 2.075-1.512 3.096-2.289.774-.588 1.639-1.187 2.176-2.017.578-.893.806-1.858 1.177-2.843l-1.446 1.102.254.085c1.818.675 2.595-2.226.798-2.893-.357-.133-.673-.172-1.052-.192-.707-.037-1.218.495-1.446 1.102-.384 1.018-.569 1.824-1.396 2.597-.894.836-1.971 1.533-2.97 2.232-1.519 1.063-3.209 2.045-3.935 3.819-.733 1.791 2.171 2.563 2.892.797z"/><path fill="#FFDEC0" d="M13.402 182.407l.792 2.346s1.633 3.037 2.006 4.142c.141.413.326 1.334.326 1.794 0 .275-.046.782-.186 1.013-.094.092-.327.276-.42.276-.188.046-.513-.095-.653-.185l-.513-.322-.792-.875c-.282-.321-.887-.967-1.12-1.288-.233-.322-.56-1.012-.746-1.332-.188-.415-.701-1.612-.701-1.612s-.046 1.381 0 1.795c0 .504.141 1.426.188 1.885 0 .46-.141 1.334-.188 1.795-.046.415-.093 1.335-.233 1.748-.14.274-.467.736-.653.92-.14.138-.419.413-.607.368-.186 0-.559-.185-.699-.275-.14-.093-.328-.37-.42-.46-.14-.185-.28-.598-.327-.783-.092-.274-.232-.736-.279-1.012-.094-.598-.234-2.393-.234-2.393l-.232-2.851-.234-.645s-.279 1.334-.326 1.794l-.186 2.162c-.093.552-.327 1.701-.652 2.207-.188.277-.654.829-.98.922-.14.045-.374 0-.466-.093-.187-.14-.419-.507-.513-.691-.093-.276-.28-.964-.374-1.286-.046-.369-.187-1.196-.187-1.609l.011-1.474c.047-.412.058-1.242.058-1.609v-1.241s-.804 1.241-1.037 1.653c-.188.37-.448 1.152-.681 1.472-.187.278-.691.828-.971 1.013-.187.093-.555.232-.742.232-.14 0-.418-.093-.512-.185-.094-.094-.231-.415-.277-.552-.047-.509.046-1.519.186-1.98.094-.366.329-1.012.467-1.379.187-.46.7-1.84.7-1.84s.793-1.61.934-2.207l.046-.828c.047-.506.42-1.887.42-1.887l.792-2.668s.374-.966.56-1.241c.141-.185.373-.553.56-.645.187-.136.56-.321.747-.368.327-.138.933-.275 1.26-.275.605-.044 1.725.138 2.285.229.513.046 1.493.139 1.959.278.326.042.933.274 1.258.412.327.184 1.027.551 1.307.829.28.229.979 1.147.979 1.147l1.492 2.21 1.493 1.793 2.006 1.794s.56.414.653.645c0 .139-.093.414-.188.552-.093.183-.186.506-.28.645-.186.137-.56.458-.84.552-.279.091-.933.231-1.258.184-.326-.046-.979-.369-1.259-.505l-.979-.737c-.234-.229-.606-.735-.794-.967-.186-.137-.746-.507-.746-.507z"/><path fill="#ED1B24" d="M33.457 78.819c-5.411-.506-15.952 5.244-19.31 9.337-2.098 2.484-5.644 11.361-5.644 11.361s-2.285 14.901-2.845 19.73c-1.725 13.938-3.405 56.022-3.405 56.022h11.8l.653-9.057 34.701.876 21.64.393s-4.197 4.934-4.29 6.955c0 1.519 2.239 4.331 3.545 5.025 1.586.779 6.995 0 6.995 0l2.613-12.144s3.543-18.307 4.383-24.424c.934-6.071 1.959-18.308 1.68-24.425-.187-6.624-2.892-20.007-6.156-25.805-1.68-2.806-6.997-6.898-9.795-8.602-3.731-2.3-12.687-5.012-17.07-4.507-1.866.229-5.036 2.667-6.902 3.174-1.866.46-5.97.415-7.742-.367-1.399-.598-3.359-3.403-4.851-3.542z"/><path fill="#fff" d="M43.531 83.556s4.104-1.519 5.41-2.16c1.025-.553 3.544-2.118 4.85-2.253 1.867-.231 7.276 1.425 7.276 1.425s-2.144 3.266-2.704 4.047c-.933 1.426-3.265 3.911-4.572 5.059-.839.828-3.637 2.991-3.637 2.991"/><path fill="#fff" d="M41.478 83.374s-3.452-1.611-4.477-2.346c-.746-.46-2.518-2.164-2.518-2.164s-7.09-.598-7.556 1.197c-.559 1.701 4.477 3.862 5.13 4.967.746 1.241 2.052 5.336 2.052 5.336l7.369-5.75"/><path fill="#fff" d="M53.791 41.331c0-5.979 4.385-10.81 9.702-10.81 5.41 0 9.701 4.831 9.701 10.81 0 5.933-4.291 10.809-9.701 10.809-5.317 0-9.702-4.876-9.702-10.809z"/><path fill="#fff" d="M18.906 42.571c0-5.013 4.383-9.105 9.701-9.105 5.411 0 9.702 4.093 9.702 9.105 0 4.969-4.291 9.063-9.702 9.063-5.318 0-9.701-4.093-9.701-9.063z"/><path fill="#F7931E" d="M40.813 51.876c-1.766.652-1.945 2.984-.821 4.46 2.375 3.12 5.466 2.732 8.953 1.935 3.285-.751 3.275-4.084 3.218-6.855-.105-5.051-3.793-7.438-6.585-11.247-.565-.771-1.868-.024-1.295.757 2.569 3.506 6.061 5.858 6.38 10.49.168 2.438-.099 4.948-2.999 5.611-1.354.31-2.595.523-3.985.277 2.139.378-5.482-2.868-2.467-3.981.899-.332.51-1.782-.399-1.447z"/><path fill="#DB0716" d="M43.904 71.395c1.79.043 3.35.504 5.132.111 1.664-.368 2.211-1.626 2.879-3.015.835-1.734-1.751-3.257-2.59-1.514-.476.988-.487 1.602-1.675 1.751-1.199.151-2.528-.305-3.746-.334-1.935-.046-1.931 2.954 0 3.001z"/><path fill="#F7931E" d="M8.793 41.973c-.018-.418-.097.268-.008-.109-.082.346.113-.121-.106.152l.055-.067.212-.114-.012.027c.382-.112-.308.007.091-.02l.248.003-.037.003c.372.082-.247-.149.083.024l-.023-.026.155.176c.512.639 1.591.53 2.121 0 .625-.625.511-1.483 0-2.121-1.764-2.203-5.898-.791-5.778 2.071.08 1.928 3.08 1.936 2.999.001z"/><path fill="#F7931E" d="M83.035 41.729c.18-1.189-.341-2.015-1.302-2.674-.644-.441-1.51-.716-2.289-.743-.817-.028-1.5.704-1.5 1.5 0 .839.683 1.472 1.5 1.5l-.166-.032.278.063.307.099c.359.127-.288-.139.06.032.102.05.562.392.252.133l.021-.01-.075-.2c.064.257.071.103.021-.465-.122.808.19 1.609 1.048 1.845.717.197 1.723-.238 1.845-1.048z"/><path fill="#DB0716" d="M23.628 109.59c-.625.659-1.316 1.324-1.983 1.933-.822.75-1.33 1.709-2.553 1.767-1.926.092-1.935 3.092 0 3 1.429-.068 2.607-.563 3.637-1.558 1.017-.982 2.048-1.997 3.02-3.021 1.33-1.402-.788-3.527-2.121-2.121z"/><path fill="#DB0716" d="M16.207 166.309c.567-8.343.398-16.88 1.222-25.22.479-4.846 1.14-9.675 1.448-14.537.153-2.411-.1-4.842-.151-7.254-.088-4.188 2.214-7.83 3.305-11.745l-2.946-.399v.321c0 1.935 3 1.935 3 0v-.321c0-1.701-2.491-2.033-2.946-.399-.896 3.213-2.436 6.039-3.073 9.327-.546 2.82-.246 5.679-.154 8.522.155 4.813-.749 9.752-1.274 14.524-.989 9.001-.82 18.2-1.43 27.18-.132 1.932 2.869 1.92 2.999.001z"/><path fill="#DB0716" d="M69.47 108.626v-.139l-2.795.757c.634 1.167 1.738 2.043 2.521 3.111.754 1.029 1.789 2.327 2.96 2.902l-.743-1.295v.183c0 .641.454 1.304 1.102 1.446.16.036.313.083.467.139 1.824.656 2.604-2.243.797-2.893-.154-.056-.307-.104-.467-.139l1.102 1.446v-.183c0-.499-.278-1.067-.743-1.295-.8-.393-1.549-1.37-2.071-2.083-.708-.966-1.768-1.814-2.333-2.854-.723-1.329-2.795-.707-2.795.757v.139c-.002 1.936 2.998 1.936 2.998.001z"/><path fill="#DB0716" d="M73.668 106.647v-.182l-2.946.399c1.329 5.024 3.494 9.821 4.122 15.011.586 4.843.013 9.767-.114 14.616-.269 10.219-2.111 20.83-5.128 30.614l2.203-.896c-.442-.161-.847-.391-1.212-.689-1.603-1.094-3.102 1.508-1.514 2.59.364.3.769.529 1.212.689.891.406 1.897.097 2.203-.896 3.069-9.953 5.13-20.979 5.235-31.411.049-4.898.472-9.711.114-14.616-.398-5.467-2.842-10.561-4.229-15.809-.436-1.647-2.946-1.293-2.946.399v.182c0 1.934 3 1.934 3-.001z"/><path fill="#114CA3" d="M20.49 169.144c7.943 0 15.903.242 23.832.04 8.117-.207 16.106.822 24.208 1.108 1.936.068 1.929-2.932 0-3-8.102-.286-16.091-1.32-24.208-1.108-7.928.208-15.889-.04-23.832-.04-1.934 0-1.934 3 0 3z"/><path fill="#114CA3" d="M78.238 180.106v-.135c0-.764-.685-1.571-1.5-1.5-1.548.136-2.967.08-4.503-.238-1.397-.29-2.373-1.773-3.157-2.837-1.134-1.54-3.739-.047-2.59 1.514 1.147 1.559 2.305 3.083 4.11 3.906 1.857.847 4.156.83 6.14.655l-1.5-1.5v.135c0 1.935 3 1.935 3 0z"/><path fill="#fff" d="M18.438 272.364c1.943.056 3.292 1.37 4.538 2.732 1.309 1.431 3.424-.697 2.121-2.121-1.823-1.993-3.865-3.531-6.659-3.611-1.936-.055-1.93 2.945 0 3z"/><path fill="#fff" d="M14.707 274.893c.801.021 1.446.225 2.135.624.233.136.452.349.659.52.164.136.694.839.65.485.1.812.606 1.5 1.5 1.5.742 0 1.601-.687 1.5-1.5-.352-2.851-3.87-4.56-6.445-4.629-1.934-.053-1.929 2.948.001 3z"/><path d="M63.12 40.64c0 1.29-1.12 2.346-2.426 2.346-1.305 0-2.331-1.057-2.331-2.346 0-1.288 1.026-2.3 2.331-2.3 1.306 0 2.426 1.012 2.426 2.3z"/><path fill="#fff" d="M60.508 39.627c0 .369-.373.691-.745.691-.467 0-.839-.322-.839-.691 0-.414.372-.735.839-.735.372.001.745.322.745.735z"/><path d="M31.778 41.652c0 1.287-1.119 2.299-2.425 2.299-1.306 0-2.332-1.013-2.332-2.299 0-1.288 1.025-2.346 2.332-2.346 1.306 0 2.425 1.059 2.425 2.346z"/><path fill="#fff" d="M29.166 40.593c0 .417-.373.738-.839.738-.374 0-.748-.321-.748-.738 0-.367.374-.688.748-.688.466-.001.839.321.839.688z"/><path fill="#764C24" d="M12.189 28.083l-4.711 2.393 5.551-13.387 2.191-5.474 4.244.645s4.198-.867 5.224-1.741c1.213-1.012 2.705-6.25 2.705-6.25h6.902s8.115-2.721 10.914-3.18c4.198-.645 16.884.157 16.884.157l-8.769 6.38 11.66-.375 5.037-3.339 1.307 5.163s4.01 3.087 5.036 4.329c.933.967 3.079 4.327 3.079 4.327l-7.556-1.93s.279 1.473.466 1.932c1.773 3.404 10.167 11.777 10.167 11.777l-5.597-3.037 1.68 12.513s-4.198-11.224-7.275-13.616c-1.866-1.518-9.421-2.623-9.421-2.623l1.865 5.935s-6.158-4.278-8.396-5.336c-.747-.275-2.893-.827-2.893-.827l3.358 4.506s-15.018-2.391-20.055-2.667c-2.519-.092-9.981.321-9.981.321l-3.545.828-11.424 21.942"/><path fill="#8C6238" d="M59.862 281.673v-10.947l1.723-4.646 15.364.14s1.293 3.861 2.32 4.646c.933.781 3.866.597 5.452 2.115.652.69 1.092 1.656 1.558 2.484.466.873.919 2.99.733 4-.28.966-1.593 2.209-2.524 2.577-1.119.507-4.668.646-4.668.646s-5.785-.139-7.65-.738c-1.679-.598-5.691-3.634-5.691-3.634l-2.239-.23.051 3.498-4.429.089z"/><path fill="#fff" d="M80.003 270.099c-1.307.031-2.39.452-3.352 1.339-.926.854-1.872 1.988-2.104 3.26-.147.803.208 1.614 1.048 1.845.735.202 1.697-.242 1.845-1.048.206-1.124 1.406-2.367 2.563-2.396 1.931-.047 1.935-3.047 0-3z"/><path fill="#fff" d="M83.734 273.318c-.988.104-1.903.361-2.616 1.095-.632.651-.928 1.544-1.162 2.399-.217.788.259 1.628 1.048 1.845.787.217 1.629-.26 1.845-1.048.066-.242.137-.483.219-.722l.018-.059c.058-.127.129-.246.204-.363l.02-.002-.071.044.177-.108c.313-.178-.309.101.06-.017.064-.021.567-.097.261-.064.813-.085 1.5-.618 1.5-1.5-.003-.753-.688-1.585-1.503-1.5z"/><path fill="#fff" d="M86.627 292.649c1.935 0 1.935-3 0-3s-1.935 3 0 3z"/></svg>