<svg xmlns="http://www.w3.org/2000/svg" width="86.724" height="291.539" viewBox="43.364 145.768 86.724 291.539" enable-background="new 43.364 145.768 86.724 291.539"><ellipse fill="#FFDEC0" cx="123.194" cy="187.103" rx="5.083" ry="5.38"/><path fill="#FFDEC0" d="M77.618 222.971l2.034-2.957s-5.805-.489-7.624-1.125c-2.94-1.027-8.13-4.719-10.417-6.833-1.943-1.797-4.919-6.351-5.833-8.834-.826-2.246-1.165-9.502-1.165-9.502l.666-7.663 5.666-12.419 8.499-5.582h10.167l11.5-1.5h9.5l11.667 1.166 6.25 6.167 3.083 9.836s.151 6.253 0 8.33c-.167 2.282-.999 6.812-1.667 9-.636 2.085-2.614 6.025-3.833 7.834-1.317 1.955-4.747 5.299-6.667 6.666-2.188 1.559-7.27 3.53-9.833 4.334-1.248.391-5.135.998-5.135.998l.985 2.724 1.482.349s-3.875 1.922-5.214 2.452c-1.063.422-4.352 1.418-4.352 1.418s-2.723.126-3.598-.085c-.963-.231-2.686-1.296-3.503-1.855-.683-.468-2.5-2.167-2.5-2.167"/><ellipse fill="#FFDEC0" cx="53.194" cy="187.103" rx="5.083" ry="5.38"/><path fill="#8C6238" d="M63.694 412.307l-2.208 4.038-3.854 2.187s-3.241.167-4.01.844c-.928.816-1.261 3.63-1.006 4.839.196.924 1.687 2.351 2.497 2.836 1.13.676 3.854.9 5.166 1.001 1.882.145 5.715-.222 7.499-.832.995-.341 2.7-1.651 3.5-2.334.561-.478 2-2.164 2-2.164l.666 4.336h4.667v-10.5l-1.333-4.168s-6.376.998-8.515.905c-1.29-.056-5.069-.988-5.069-.988z"/><path fill="#216083" d="M78.861 412.225s-7.139 1.191-9.542 1.163c-2.026-.023-8.021-1.168-8.021-1.168l-1.677-36.334-1.011-35.834v-13.996l2.167-1.5-1.167-1.504-2-2.496.667-9.166 32.176.781 23.49.386s-3.915 6.491-3.5 8.829c.187 1.047 1.831 2.818 2.834 3.171 1.611.566 6.833 0 6.833 0v23l-.833 26.329.833 19.585 1.333 18.086h-4.333l-15.167-.171-1.333-22-.833-16.833s-.184-12.627-.334-16.834c-.083-2.341-.363-7.038-.833-9.333-.405-1.975-2.745-8.417-2.5-7.667.244.75-4.864-2.067-6.583-2-1.945.075-6.169 1.216-7.25 2.833-1.504 6.691-1.5 17.167-1.5 17.167l-.667 19.334-.333 20.666-.916 15.506z"/><path fill="#114CA3" d="M60.667 326.587c.354-.918 1.57-1.526 2.322-2.102l2.87-2.123c1.71-1.311 2.307-2.457 2.975-4.441l-.724.551.288.063c.877.384 1.642-.908.757-1.295-.389-.171-.62-.242-1.045-.269-.344-.021-.621.246-.723.551-.391 1.161-.641 2.072-1.566 2.952-.927.88-2.046 1.626-3.089 2.357-1.286.902-2.923 1.83-3.512 3.356-.347.905 1.103 1.293 1.447.4z"/><path fill="#FFDEC0" d="M56.98 327.531l.795 2.344s1.604 3.044 1.954 4.133c.143.442.351 1.364.334 1.829-.008.251-.064.774-.205.982-.071.105-.28.29-.406.305-.168.02-.498-.118-.644-.202-.125-.073-.365-.241-.475-.339-.219-.195-.618-.626-.813-.846-.284-.324-.874-.962-1.116-1.32-.21-.31-.552-.979-.71-1.319-.188-.402-.711-1.624-.711-1.624s-.021 1.37 0 1.827c.021.475.167 1.419.169 1.895.001.441-.111 1.322-.169 1.76-.059.44-.078 1.346-.237 1.76-.103.268-.431.756-.643.948-.127.115-.404.378-.575.372-.183-.006-.582-.202-.728-.313-.125-.096-.29-.344-.389-.466-.135-.165-.277-.575-.339-.778-.073-.243-.227-.73-.271-.982-.104-.602-.203-2.436-.203-2.436l-.271-2.843-.203-.643s-.278 1.341-.338 1.793c-.072.538-.076 1.631-.169 2.166-.099.564-.339 1.715-.644 2.199-.182.288-.649.866-.981.947-.118.029-.378-.027-.474-.101-.164-.126-.395-.486-.474-.678-.13-.309-.312-.957-.372-1.285-.074-.402-.182-1.217-.203-1.625-.02-.371.066-1.116.07-1.488l.069-1.625v-1.218s-.826 1.231-1.051 1.657c-.188.357-.489 1.128-.712 1.464-.191.288-.669.829-.966 1.007-.159.097-.531.244-.719.237-.135-.005-.416-.076-.512-.17-.113-.11-.254-.417-.273-.575-.059-.488.051-1.484.169-1.962.087-.356.345-1.045.473-1.388l.676-1.827s.774-1.646.914-2.233c.05-.206.042-.635.067-.846.059-.473.407-1.86.407-1.86l.777-2.675s.389-.987.576-1.285c.111-.178.373-.517.541-.643.166-.125.546-.31.744-.372.305-.097.933-.259 1.252-.271.57-.021 1.703.155 2.268.237.482.071 1.456.154 1.929.271.314.078.929.295 1.219.44.346.175 1.031.553 1.319.813.277.248.947 1.149.947 1.149l1.49 2.234 1.488 1.793 1.929 1.794s.581.424.644.643c.04.142-.075.441-.136.575-.07.155-.194.479-.305.609-.157.185-.551.493-.778.575-.305.11-.967.223-1.286.169-.325-.055-.938-.332-1.219-.507-.26-.164-.76-.53-.981-.745-.224-.218-.583-.735-.812-.948-.155-.145-.707-.489-.707-.489z"/><path fill="#FFDEC0" d="M76.777 223.64c-5.294-.481-15.729 5.252-19.083 9.375-2.047 2.515-5.583 11.375-5.583 11.375s-2.226 15.046-2.813 19.906c-1.689 13.989-3.354 56.26-3.354 56.26h11.667l.667-9.166 34.333.833 21.333.333s-4.092 4.963-4.167 6.998c-.057 1.525 2.146 4.297 3.501 5.002 1.515.789 6.833 0 6.833 0l2.667-12.166s3.47-18.34 4.333-24.5c.852-6.08 1.905-18.366 1.667-24.5-.258-6.635-2.937-20.033-6.167-25.834-1.58-2.835-6.909-6.954-9.667-8.666-3.7-2.299-12.506-5.004-16.833-4.5-1.87.217-5.011 2.691-6.833 3.166-1.856.484-5.918.454-7.667-.333-1.372-.617-3.336-3.447-4.834-3.583z"/><ellipse fill="#fff" cx="106.528" cy="186.059" rx="9.583" ry="10.833"/><ellipse fill="#fff" cx="72.028" cy="187.294" rx="9.583" ry="9.098"/><path fill="#F7931E" d="M84.177 197.026c-2.11.578-.995 3.252-.133 4.497 1.87 2.698 5.797 1.786 8.393 1.039 2.963-.853 2.616-4.62 2.467-7.053-.279-4.522-3.982-6.906-6.386-10.393-.272-.396-.923-.021-.647.379 1.263 1.832 2.825 3.408 4.261 5.103 1.78 2.1 2.093 4.256 2.079 6.937-.005.925-.107 1.851-.3 2.755-.354 1.665-2.842 1.851-4.121 2.101-1.527.298-2.781.284-4.2-.466-.247-.131-3.378-3.581-1.213-4.173.466-.13.268-.854-.2-.726z"/><path fill="#DB0716" d="M87.11 215.471c1.646.037 3.147.455 4.782.143 1.51-.289 1.956-1.419 2.532-2.681.399-.873-.893-1.636-1.295-.757-.497 1.088-.72 1.817-2.011 2.063-1.258.24-2.728-.239-4.009-.268-.966-.021-.965 1.479.001 1.5z"/><path fill="#F7931E" d="M51.694 186.721c-.058-1.002 1.364-1.137 1.886-.47.596.762 1.65-.308 1.061-1.06-1.333-1.702-4.575-.721-4.447 1.531.055.961 1.555.966 1.5-.001z"/><path fill="#F7931E" d="M125.167 186.254c.204-1.509-1.585-2.412-2.89-2.45-.968-.028-.965 1.472 0 1.5l.082.002.251.056c.192.049.374.119.552.206.146.072.294.155.412.257.145.124.119.234.146.029-.054.405.091.804.524.923.354.098.868-.117.923-.523z"/><path fill="#F7931E" d="M67.845 255.29c-.584.698-1.309 1.297-1.943 1.952-.973 1.002-1.776 2.038-3.292 2.104-.481.021-.483.771 0 .75 1.133-.05 1.979-.482 2.804-1.242.538-.496 1.05-1.074 1.519-1.635l1.443-1.399c.308-.368-.22-.903-.531-.53z"/><path fill="#F7931E" d="M58.653 311.39c.206-4.658.269-9.358.857-14.034.472-3.754-.03-7.596.345-11.368.491-4.951 1.189-9.895 1.447-14.866.143-2.733-.276-5.465-.084-8.198.273-3.874 2.296-7.089 3.254-10.77l-.737-.099v.333c0 .483.75.483.75 0v-.333c0-.423-.629-.513-.736-.1-.911 3.499-2.684 6.504-3.188 10.127-.373 2.679-.009 5.416.017 8.106.048 5.09-.896 10.271-1.424 15.324-.401 3.85-.146 7.709-.371 11.57-.061 1.05-.193 2.082-.214 3.138-.026 1.353.188 3.375-.365 4.625-.834 1.88-.211 4.511-.301 6.544-.021.485.729.483.75.001z"/><path fill="#F7931E" d="M111.319 253.554v-.166l-.698.188c.623 1.266 1.853 2.23 2.673 3.375.338.472.736.844 1.147 1.249l.643.673c.252.249.318.149.318.181 0 .159.114.327.275.361.145.018.282.061.41.129.436.203.816-.443.379-.647-.193-.091-.38-.16-.59-.205l.275.362v-.167c0-.126-.069-.265-.186-.323-.945-.48-1.78-1.669-2.393-2.494-.716-.963-1.775-1.797-2.306-2.872-.169-.344-.698-.168-.698.189v.167c.001.485.751.485.751 0z"/><path fill="#F7931E" d="M115.485 251.554v-.166l-.736.099c1.239 4.969 3.387 9.731 4.048 14.833.665 5.129-.049 10.259-.094 15.392-.05 5.681-.739 11.357-1.954 16.91-.541 2.472-1.007 4.958-1.512 7.438-.252 1.233-.542 2.457-.851 3.677-.273 1.082-.091 3.086-1.344 1.886-.35-.334-.881.196-.531.53.357.342.795.528 1.243.728.226.1.472.024.552-.224 1.637-5.119 2.506-10.502 3.572-15.762 1.007-4.971 1.567-10.115 1.575-15.183.007-5.161.614-10.225.094-15.392-.521-5.165-2.825-10.024-4.074-15.032-.104-.415-.737-.321-.737.1v.167c-.001.484.749.484.749-.001z"/><path fill="#114CA3" d="M63.944 313.471c7.616 0 15.235.174 22.833.063 8.281-.121 16.401.76 24.667 1.104.968.04.964-1.46 0-1.5-8.258-.344-16.392-1.37-24.667-1.104-1.562.05-3.106-.16-4.667-.188-1.954-.034-3.912.257-5.87.273-4.095.034-8.198-.148-12.296-.148-.967 0-.967 1.5 0 1.5z"/><path fill="#114CA3" d="M120.36 325.221v-.167c0-.373-.343-.797-.75-.75-1.437.164-2.696.098-4.134-.14-1.917-.316-3.008-1.837-4.053-3.322-.551-.784-1.853-.036-1.295.757 1.038 1.478 2.086 2.887 3.765 3.664 1.699.787 3.913.748 5.717.541l-.75-.75v.167c0 .967 1.5.967 1.5 0z"/><path fill="#fff" d="M61.944 416.971c2.077.059 3.705 1.387 4.97 2.947.609.752 1.663-.316 1.061-1.061-1.531-1.889-3.544-3.316-6.031-3.386-.968-.027-.966 1.473 0 1.5z"/><path fill="#fff" d="M58.277 419.471c.916.026 1.666.274 2.455.73.484.281 1.558 1.085 1.628 1.687.111.948 1.612.959 1.5 0-.28-2.403-3.465-3.855-5.583-3.917-.968-.027-.966 1.473 0 1.5z"/><circle cx="103.778" cy="185.389" r="2.333"/><ellipse fill="#fff" cx="102.778" cy="184.348" rx=".75" ry=".708"/><circle cx="72.778" cy="186.389" r="2.333"/><ellipse fill="#fff" cx="71.778" cy="185.348" rx=".75" ry=".708"/><path fill="#764C24" d="M55.778 172.806l-4.667 2.376 5.5-13.395 2.167-5.532 4.166.651s4.149-.522 5.167-1.39c1.241-1.061 2.667-5.961 2.667-5.961h6.833s8.021-3.058 10.833-3.5c4.116-.649 16.667 0 16.667 0l-8.667 6.294 11.5-.396 5-3.364 1.334 5.151s3.896 3.096 5 4.326c.88.979 3 4.329 3 4.329l-7.5-1.899s.273 1.462.5 1.896c1.787 3.437 10 11.833 10 11.833l-5.467-3.066 1.633 12.566s-4.168-11.239-7.166-13.667c-1.877-1.52-9.302-2.611-9.302-2.611l1.802 5.944s-6.083-4.307-8.334-5.333c-.672-.307-2.833-.834-2.833-.834l3.333 4.5s-14.836-2.417-19.833-2.666c-2.457-.123-9.833.333-9.833.333l-3.5.834-11.334 22"/><path fill="#8C6238" d="M102.111 427.056v-11l2.126-4.645 15.374.145s1.352 3.85 2.375 4.665c.955.762 3.875.585 5.422 2.112.682.673 1.127 1.629 1.578 2.473.479.897.975 3.008.75 4-.223.981-1.575 2.228-2.5 2.625-1.092.469-4.625.625-4.625.625s-5.726-.146-7.5-.75c-1.698-.577-5.688-3.625-5.688-3.625l-2.201-.249-.361 3.499-4.75.125z"/><path fill="#fff" d="M122.861 416.181c-2.175.053-4.239 1.927-4.724 4.051-.214.941 1.232 1.343 1.447.398.33-1.452 1.764-2.911 3.276-2.948.967-.024.969-1.524.001-1.501z"/><path fill="#fff" d="M126.486 419.431c-.779.079-1.511.301-2.047.902-.503.563-.73 1.312-.927 2.023-.258.935 1.189 1.33 1.446.398.246-.891.488-1.719 1.527-1.823.406-.041.75-.311.75-.75.001-.378-.341-.791-.749-.75z"/><path fill="#fff" d="M129.361 437.306c.968 0 .968-1.5 0-1.5s-.967 1.5 0 1.5z"/><path fill="#F7931E" d="M88.277 303.472c.968 0 .968-1.5 0-1.5-.967 0-.967 1.5 0 1.5z"/><path fill="#F7931E" d="M87.944 304.139c.968 0 .968-1.5 0-1.5-.967 0-.967 1.5 0 1.5z"/><path fill="#F7931E" d="M88.611 303.472c.968 0 .968-1.5 0-1.5s-.967 1.5 0 1.5z"/><path fill="#F7931E" d="M89.611 304.139c.968 0 .968-1.5 0-1.5s-.967 1.5 0 1.5z"/><path fill="#F7931E" d="M88.277 304.472c.968 0 .968-1.5 0-1.5-.967 0-.967 1.5 0 1.5z"/><path fill="#F7931E" d="M89.277 304.139c.968 0 .968-1.5 0-1.5-.967 0-.967 1.5 0 1.5z"/><path fill="#F7931E" d="M89.277 304.139c.968 0 .968-1.5 0-1.5-.967 0-.967 1.5 0 1.5z"/><path fill="#F7931E" d="M89.277 305.139c.968 0 .968-1.5 0-1.5-.967 0-.967 1.5 0 1.5z"/><path fill="#F7931E" d="M89.277 304.139c.968 0 .968-1.5 0-1.5-.967 0-.967 1.5 0 1.5z"/></svg>