<svg xmlns="http://www.w3.org/2000/svg" width="633.666" height="604.009"><path fill="#DBB767" d="M365.792 45.86c39.304-34.103 39.563-34.03 39.563-34.03l10.139 47.079 8.355 3.096 24.134-8.874v19.351l8.251 4.806 46.749-18.894-4.07 47.761 4.07 3.327h28l-5.89 21.455 5.89 6.545h47l-19.914 37.683 6.299 11.309 21.071 5.253-11.906 14.243 4.323 11.081 46.18 15.027-34.202 32.455 1.282 10.218 18.884 12.591-17.562 12.842-.032 3.807 41.26 34.229-47.188 15.628-2.567 10.34 12.054 18.769-20.571 6.86-2.987 7.299 28.822 40.367h-54.246l-1.699 7.283 7.699 27.717h-31l16.088 51.702-58.588-15.431 2.447 31.22-26.315-10.526-7.018 3.509-3.509 48.246-43.859-28.948-14.036 28.948-21.059-22.685-26.309 45.491-34.21-40.351-21.93 16.666-13.158-21.684-35.965 36.842h-6.579l-9.097-53.755-30.666 13.158-4.237-.877v-27.526l-53.807 23.141 7.346-53.258-32.784-.251 5.114-25.356-57.745 1.672 23.48-47.248-28.743-8.893 12.205-24.53-49.926-14.066 36.275-32.514-1.219-7.092-21.021-16.535 18.07-17.562-41.228-31.56 45.778-19.217 2.456-11.152-15.426-18.133 23.333-7.768 2.991-7.762-29.833-37.723 50.22-1.929 3.296-5.083-3.516-26.32 25.254-1.919-11.22-49.836 51.883 12.452 4.352-3.188-.095-25.931 27.937 8.379 2.75-1.495s.893-46.358 2.647-48.99l7.895.877 37.622 27.769 7.624-2.223 8.264-22.757h5.772l16.158 11h6.842l19.472-41.481 31.599 41.938 23.664-18.631 18.073 22.553z"/><ellipse fill="#F9B834" cx="316.833" cy="300.184" rx="275.605" ry="258.333"/><path d="M407.356 261.33c-.704-.843-1.412-1.683-2.122-2.521" fill="none"/><path d="M447.741 331.084c-9.759-24.602-20.759-48.602-39.54-68.741" fill="none"/><path d="M450.519 338.533c-.752-2.076-1.521-4.147-2.305-6.212" fill="none"/><path fill="#F5AA30" d="M316.141 41.237c-63.271 0-121.479 20.567-167.707 55.031 40.02.903 78.706 15.736 112.819 36.173 18.875 11.308 36.742 24.263 53.668 38.313 8.047 6.681 15.752 13.719 24.044 20.098 7.035 5.413 14.007 10.927 19.345 18.036 4.088 1.765 7.375 5.315 10.147 8.783 6.583 8.236 12.032 16.954 19.251 24.661 9.66 10.313 18.468 21.404 26.5 33.028 17.355 25.119 30.113 51.699 39.977 80.538 9.527 27.858 18.602 55.492 22.707 84.761 3.146 22.432 4.029 45.442 1.439 68.011 66.811-47.236 110.108-122.913 110.108-208.222-.001-143.158-121.912-259.211-272.298-259.211z"/></svg>