<svg xmlns="http://www.w3.org/2000/svg" width="633.666" height="604.008"><g fill="#fff"><polygon points="10,7.504 10,163.68 110.918,163.68 110.918,135.87 54.964,135.87 35.979,135.87 34.98,85.593 110.918,85.593 110.918,60.989 35.979,60.989 35.979,33.178 80.942,32.108 80.942,7.504"/><polygon points="243.809,7.504 243.809,163.68 344.727,163.68 344.727,135.87 288.773,135.87 269.788,135.87 268.789,85.593 344.727,85.593 344.727,60.989 269.788,60.989 269.788,33.178 314.751,32.108 314.751,7.504"/></g><polygon fill="#fff" points="170.869,94.149 140.893,7.504 110.918,7.504 170.869,170.099 232.818,7.504 205.84,7.504"/><g fill="#fff"><path d="M460.632 130.52c17.984-11.231 25.979-25.673 31.115-41.718 3.263-10.189-2.139-41.363-10.633-52.951-14.987-22.464-41.464-28.347-41.464-28.347h-74.94v156.176h24.979v-20.858l40.966-1.07 22.981 24.068h38.827l-31.831-35.3zm-20.982-16.045c-4.665 2.671-49.96-2.14-49.96-2.14v-74.878s44.964-.534 49.96 0c4.995.532 26.61 10.162 26.478 32.625-.201 33.786-21.816 41.721-26.478 44.393z"/><polygon points="518.584,7.504 492.606,7.504 540.566,120.893 525.579,163.68 551.558,163.68 621.5,7.504 590.527,7.504 557.054,88.802"/></g><g fill="#fff"><polygon points="35.979,212.887 12.998,212.887 12.998,366.923 179.862,366.923 179.862,341.25 36.312,341.608"/><path d="M119.036 201.122l-62.074 118.733h30.975l5.746-17.112 49.209.801 9.992 16.312h27.977l-61.825-118.734zm-10.117 74.877l9.992-19.789 10.991 19.789h-20.983z"/></g><polyline fill="#fff" stroke="#fff" stroke-miterlimit="10" points="336.734,241.234 373.702,241.234 372.703,213.422 279.78,213.422 274.034,219.841 268.789,219.841 282.777,240.164 312.753,240.164 313.502,367.459 336.734,367.459"/><path fill="#fff" stroke="#fff" stroke-miterlimit="10" d="M89.935 436.99h25.479s3.491 61.048 0 80.889c-2.597 14.755-8.993 32.912-25.479 52.994-10.996 11.472-26.978 21.197-46.961 21.756l-30.475-3.903v-23.986s16.494.917 21.982.556c9.59-.63 29.707-4.694 36.97-11.716 7.184-6.946 13.942-28.298 15.487-38.768 2.834-19.215 2.997-77.822 2.997-77.822z"/><path fill="#fff" stroke="#fff" stroke-miterlimit="10" d="M277.282 521.494c-.29-12.354-7.844-36.284-12.49-47.597-8.161-19.874-42.715-73.813-42.715-73.813s-46.052 46.091-57.578 64.721c-5.939 9.594-15.232 30.916-17.111 42.253-1.396 8.425-3.184 26.379 0 34.228 5.84 14.4 26.857 39.619 40.467 45.466 10.571 4.54 34.776 7.425 45.463 3.207 10.175-4.018 28.482-18.871 33.972-28.881 4.846-8.841 10.23-29.334 9.992-39.584zm-63.339 37.439c-22.84 0-41.356-19.634-41.356-43.854 0-24.221 18.516-43.861 41.356-43.861 22.841 0 41.357 19.641 41.357 43.861s-18.516 43.854-41.357 43.854z"/><path fill="#fff" stroke="#fff" stroke-miterlimit="10" d="M362.138 451.678c-8.524-11.082-19.135-13.111-26.521-13.627-10.063-.709-40.351 0-40.351 0v77.028h40.982s14.523-4.373 22.731-12.603c8.208-8.23 9.936-15.841 10.103-21.867.205-7.419-1.913-22.881-6.944-28.931zm-25.573 39.866h-28.309v-41.088s21.984-3.023 28.478 0c3.604 1.678 8.737 13.51 8.737 13.51 16.407 30.442-8.906 27.578-8.906 27.578z"/><path fill="#fff" stroke="#fff" stroke-miterlimit="10" d="M397.097 519.338c-12.979-13.252-40.385-16.024-40.385-16.024h-61.445v90.922s46.888 1.708 62.408 0c9.264-1.017 22.116-4.914 34.615-14.751 12.498-9.837 15.12-18.302 15.385-25.989.31-8.991-2.916-26.926-10.578-34.158zm-50.388 55.124l-38.453-3.76v-53.487s29.467-3.623 38.469 0c9.431 3.801 31.198 17.699 30.308 28.445 1.166 33.081-30.324 28.802-30.324 28.802z"/><path fill="#fff" stroke="#fff" stroke-miterlimit="10" d="M268.539 248.588c-6.163-.616-15.734-11.063-21.732-12.703-5.083-1.388-15.975-1.67-20.983 0-2.686.897-8.268 3.455-9.743 6.018-2.294 3.989-4.411 14.513-2.248 18.585 2.998 4.813 9.992 6.419 9.992 6.419s24.484 7.571 31.974 11.767c5.146 2.881 15.133 9.829 18.735 14.709 2.451 3.319 5.866 11.15 6.869 15.242.879 3.59 1.874 14.708 1.874 14.708s.757 9.533 0 12.569c-.872 3.499-6.744 12.568-6.744 12.568l-9.742 9.091s-10.562 7.59-14.489 9.228c-2.973 1.242-9.309 2.551-12.49 2.81-4.981.404-15.057.887-19.984 0-7.109-1.283-27.477-9.358-27.477-9.358v-36.106s11.145 9.71 15.487 11.769c2.396 1.135 10.242 2.407 10.242 2.407s10.115.529 13.489.536c1.875.003 5.64.026 7.494-.269 1.722-.277 5.123-1.188 6.745-1.874 1.558-.657 4.754-1.999 5.995-3.208 1.499-1.46 4.497-7.219 4.497-7.219s1.952-3.703 1.999-5.082c.091-2.72-2.509-7.909-4.247-9.895-1.897-2.166-8.993-6.953-8.993-6.953l-14.738-6.953s-9.034-2.88-11.99-4.011c-2.981-1.142-9.053-3.292-11.74-5.083-3.233-2.152-10.492-5.615-11.491-10.695-1.685-2.633-4.622-11.768-4.622-11.768s-2.73-12.372-3.123-16.58c-.298-3.194-.973-9.802 0-12.837 1-3.124 4.984-8.447 7.244-10.697 2.644-2.632 8.324-7.506 11.491-9.36 3.958-2.317 12.367-6.019 16.737-7.221 3.062-.842 9.334-1.923 12.49-2.139 3.615-.248 10.938-.774 14.488 0 3.955.861 9.72 1.932 13.489 3.477 2.435.998 11.49 6.151 11.49 6.151l7.244 25.94c0 .001-9.851 6.382-13.489 6.017z"/></svg>